grf
version=1
nRows=39
nColumns=28
inDegrees=yes
endheader
time	ground_force_1_vx	ground_force_1_vy	ground_force_1_vz	ground_force_1_px	ground_force_1_py	ground_force_1_pz	ground_moment_1_mx	ground_moment_1_my	ground_moment_1_mz	ground_force_2_vx	ground_force_2_vy	ground_force_2_vz	ground_force_2_px	ground_force_2_py	ground_force_2_pz	ground_moment_2_mx	ground_moment_2_my	ground_moment_2_mz	ground_force_3_vx	ground_force_3_vy	ground_force_3_vz	ground_force_3_px	ground_force_3_py	ground_force_3_pz	ground_moment_3_mx	ground_moment_3_my	ground_moment_3_mz
3.007500	0.000000	0.000000	0.000000	-0.114419	0.000000	0.213186	0.000000	0.000000	0.000000	0.000000	0.000000	0.000000	-0.131244	0.000000	0.285560	0.000000	0.000000	0.000000	0.000000	0.000000	0.000000	-1.015978	0.000000	0.496178	0.000000	0.000000	0.000000
3.008333	0.000000	0.000000	0.000000	-0.046763	0.000000	0.144275	0.000000	0.000000	0.000000	0.000000	0.000000	0.000000	0.535333	0.000000	1.188729	0.000000	0.000000	0.000000	0.000000	0.000000	0.000000	-1.105022	0.000000	0.377044	0.000000	0.000000	0.000000
3.009167	0.000000	0.000000	0.000000	0.133296	0.000000	0.353409	0.000000	0.000000	0.000000	0.000000	0.000000	0.000000	-0.295485	0.000000	0.157887	0.000000	0.000000	0.000000	0.000000	0.000000	0.000000	-0.906361	0.000000	0.282443	0.000000	0.000000	0.000000
3.010000	0.000000	0.000000	0.000000	0.198137	0.000000	0.609814	0.000000	0.000000	0.000000	0.000000	0.000000	0.000000	-1.243686	0.000000	0.222791	0.000000	0.000000	0.000000	0.000000	0.000000	0.000000	-1.143479	0.000000	0.643286	0.000000	0.000000	0.000000
3.010833	0.000000	0.000000	0.000000	-0.431474	-0.000000	-2.211311	0.000000	0.000000	0.000000	0.000000	0.000000	0.000000	-0.455504	0.000000	0.588554	0.000000	0.000000	0.000000	0.000000	0.000000	0.000000	-0.947841	0.000000	0.335440	0.000000	0.000000	0.000000
3.011667	0.000000	0.000000	0.000000	0.257846	0.000000	0.820933	0.000000	0.000000	0.000000	0.000000	0.000000	0.000000	-0.315969	0.000000	0.239425	0.000000	0.000000	0.000000	0.000000	0.000000	0.000000	-1.055156	0.000000	0.018337	0.000000	0.000000	0.000000
3.012500	0.000000	0.000000	0.000000	0.343817	0.000000	0.744859	0.000000	0.000000	0.000000	0.000000	0.000000	0.000000	-0.316657	0.000000	0.066202	0.000000	0.000000	0.000000	0.000000	0.000000	0.000000	-0.872177	0.000000	3.614586	0.000000	0.000000	0.000000
3.013333	0.000000	0.000000	0.000000	0.325885	0.000000	0.422041	0.000000	0.000000	0.000000	0.000000	0.000000	0.000000	-1.634754	0.000000	1.358713	0.000000	0.000000	0.000000	0.000000	0.000000	0.000000	-1.235470	0.000000	0.524218	0.000000	0.000000	0.000000
3.014167	0.000000	0.000000	0.000000	0.657318	0.000000	0.338823	0.000000	0.000000	0.000000	0.000000	0.000000	0.000000	-0.326912	0.000000	0.263168	0.000000	0.000000	0.000000	0.000000	0.000000	0.000000	-1.079381	0.000000	0.377729	0.000000	0.000000	0.000000
3.015000	0.000000	0.000000	0.000000	-1.889985	-0.000000	-2.622056	0.000000	0.000000	0.000000	0.000000	0.000000	0.000000	-0.285387	0.000000	0.203424	0.000000	0.000000	0.000000	0.000000	0.000000	0.000000	-1.003461	0.000000	0.377375	0.000000	0.000000	0.000000
3.015833	0.000000	0.000000	0.000000	2.062457	0.000000	1.095646	0.000000	0.000000	0.000000	0.000000	0.000000	0.000000	-0.609145	0.000000	0.270437	0.000000	0.000000	0.000000	0.000000	0.000000	0.000000	-1.030783	0.000000	0.072281	0.000000	0.000000	0.000000
3.016667	0.000000	0.000000	0.000000	0.680602	0.000000	0.946480	0.000000	0.000000	0.000000	0.000000	0.000000	0.000000	-1.155759	-0.000000	-3.742746	0.000000	0.000000	0.000000	0.000000	0.000000	0.000000	3.039627	0.000000	0.012523	0.000000	0.000000	0.000000
3.017500	0.000000	0.000000	0.000000	0.228332	0.000000	0.402295	0.000000	0.000000	0.000000	0.000000	0.000000	0.000000	-0.205159	0.000000	0.448303	0.000000	0.000000	0.000000	0.000000	0.000000	0.000000	-1.166796	0.000000	0.635936	0.000000	0.000000	0.000000
3.018333	0.000000	0.000000	0.000000	-1.100659	-0.000000	-1.135716	0.000000	0.000000	0.000000	0.000000	0.000000	0.000000	-0.591256	0.000000	0.495454	0.000000	0.000000	0.000000	0.000000	0.000000	0.000000	-0.827382	0.000000	0.264923	0.000000	0.000000	0.000000
3.019167	0.000000	0.000000	0.000000	0.468209	0.000000	0.383857	0.000000	0.000000	0.000000	0.000000	0.000000	0.000000	4.105421	0.000000	0.744050	0.000000	0.000000	0.000000	0.000000	0.000000	0.000000	-0.143083	0.000000	2.538900	0.000000	0.000000	0.000000
3.020000	0.000000	0.000000	0.000000	0.241284	0.000000	0.429776	0.000000	0.000000	0.000000	0.000000	0.000000	0.000000	0.370355	-0.000000	-0.092441	0.000000	0.000000	0.000000	0.000000	0.000000	0.000000	-0.924070	0.000000	0.422948	0.000000	0.000000	0.000000
3.020833	0.000000	0.000000	0.000000	0.416997	0.000000	0.587593	0.000000	0.000000	0.000000	0.000000	0.000000	0.000000	-0.270271	0.000000	0.306016	0.000000	0.000000	0.000000	0.000000	0.000000	0.000000	-0.222740	0.000000	0.377480	0.000000	0.000000	0.000000
3.021667	0.000000	0.000000	0.000000	0.575552	0.000000	0.442633	0.000000	0.000000	0.000000	0.000000	0.000000	0.000000	0.057019	0.000000	0.266996	0.000000	0.000000	0.000000	0.000000	0.000000	0.000000	-0.325585	0.000000	0.851784	0.000000	0.000000	0.000000
3.022500	0.000000	0.000000	0.000000	0.616415	0.000000	0.638803	0.000000	0.000000	0.000000	0.000000	0.000000	0.000000	-0.149363	0.000000	0.163966	0.000000	0.000000	0.000000	0.000000	0.000000	0.000000	-0.840806	0.000000	0.320944	0.000000	0.000000	0.000000
3.023333	0.000000	0.000000	0.000000	0.589438	0.000000	0.949118	0.000000	0.000000	0.000000	0.000000	0.000000	0.000000	-0.263785	0.000000	0.216942	0.000000	0.000000	0.000000	0.000000	0.000000	0.000000	-0.923872	0.000000	0.469143	0.000000	0.000000	0.000000
3.024167	0.000000	0.000000	0.000000	0.137250	0.000000	0.252205	0.000000	0.000000	0.000000	0.000000	0.000000	0.000000	-0.363381	0.000000	0.149622	0.000000	0.000000	0.000000	0.000000	0.000000	0.000000	-0.968919	0.000000	0.460861	0.000000	0.000000	0.000000
3.025000	0.000000	0.000000	0.000000	0.265174	0.000000	0.353160	0.000000	0.000000	0.000000	0.000000	0.000000	0.000000	-0.247034	0.000000	0.219852	0.000000	0.000000	0.000000	0.000000	0.000000	0.000000	-0.362764	0.000000	0.654408	0.000000	0.000000	0.000000
3.025833	0.000000	0.000000	0.000000	0.315722	0.000000	0.493439	0.000000	0.000000	0.000000	0.000000	0.000000	0.000000	-0.276528	0.000000	0.270084	0.000000	0.000000	0.000000	0.000000	0.000000	0.000000	-1.011464	0.000000	0.028524	0.000000	0.000000	0.000000
3.026667	0.000000	0.000000	0.000000	0.225933	0.000000	0.360691	0.000000	0.000000	0.000000	0.000000	0.000000	0.000000	0.097785	0.000000	0.214935	0.000000	0.000000	0.000000	0.000000	0.000000	0.000000	-1.031105	0.000000	0.320702	0.000000	0.000000	0.000000
3.027500	0.000000	0.000000	0.000000	-0.133301	0.000000	0.164061	0.000000	0.000000	0.000000	0.000000	0.000000	0.000000	-0.265691	0.000000	0.269833	0.000000	0.000000	0.000000	0.000000	0.000000	0.000000	-1.053808	-0.000000	-0.312524	0.000000	0.000000	0.000000
3.028333	0.000000	0.000000	0.000000	0.523945	0.000000	0.706757	0.000000	0.000000	0.000000	0.000000	0.000000	0.000000	-0.272375	0.000000	0.257552	0.000000	0.000000	0.000000	0.000000	0.000000	0.000000	-1.157151	0.000000	0.078414	0.000000	0.000000	0.000000
3.029167	0.000000	0.000000	0.000000	0.323782	0.000000	0.584576	0.000000	0.000000	0.000000	0.000000	0.000000	0.000000	-0.473276	0.000000	0.144707	0.000000	0.000000	0.000000	0.000000	0.000000	0.000000	-0.610025	0.000000	4.572606	0.000000	0.000000	0.000000
3.030000	0.000000	0.000000	0.000000	0.325040	0.000000	0.464709	0.000000	0.000000	0.000000	0.000000	0.000000	0.000000	0.322091	0.000000	0.117980	0.000000	0.000000	0.000000	0.000000	0.000000	0.000000	-0.221074	0.000000	0.190396	0.000000	0.000000	0.000000
3.030833	0.000000	0.000000	0.000000	0.789845	0.000000	0.422115	0.000000	0.000000	0.000000	0.000000	0.000000	0.000000	0.452936	0.000000	0.429316	0.000000	0.000000	0.000000	0.000000	0.000000	0.000000	-1.059935	0.000000	0.357178	0.000000	0.000000	0.000000
3.031667	0.000000	0.000000	0.000000	-0.068826	0.000000	0.237832	0.000000	0.000000	0.000000	0.000000	0.000000	0.000000	-0.580048	0.000000	0.519004	0.000000	0.000000	0.000000	0.000000	0.000000	0.000000	-0.959233	0.000000	0.412727	0.000000	0.000000	0.000000
3.032500	0.000000	0.000000	0.000000	0.319753	0.000000	0.337268	0.000000	0.000000	0.000000	0.000000	0.000000	0.000000	-0.244718	0.000000	0.170236	0.000000	0.000000	0.000000	0.000000	0.000000	0.000000	-0.933214	0.000000	0.342681	0.000000	0.000000	0.000000
3.033333	0.000000	0.000000	0.000000	0.039148	0.000000	0.338620	0.000000	0.000000	0.000000	0.000000	0.000000	0.000000	-0.273335	-0.000000	-0.003495	0.000000	0.000000	0.000000	0.000000	0.000000	0.000000	-0.955911	0.000000	0.338454	0.000000	0.000000	0.000000
3.034167	0.000000	0.000000	0.000000	0.301782	0.000000	0.520590	0.000000	0.000000	0.000000	0.000000	0.000000	0.000000	0.036892	0.000000	0.213315	0.000000	0.000000	0.000000	0.000000	0.000000	0.000000	-0.875246	0.000000	0.393601	0.000000	0.000000	0.000000
3.035000	0.000000	0.000000	0.000000	-1.115071	-0.000000	-1.509678	0.000000	0.000000	0.000000	0.000000	0.000000	0.000000	0.296128	0.000000	0.488806	0.000000	0.000000	0.000000	0.000000	0.000000	0.000000	-0.882379	0.000000	0.352927	0.000000	0.000000	0.000000
3.035833	0.000000	0.000000	0.000000	0.471269	0.000000	0.548152	0.000000	0.000000	0.000000	0.000000	0.000000	0.000000	-0.257924	0.000000	0.560535	0.000000	0.000000	0.000000	0.000000	0.000000	0.000000	-1.255425	0.000000	0.508402	0.000000	0.000000	0.000000
3.036667	0.000000	0.000000	0.000000	0.507779	0.000000	0.666032	0.000000	0.000000	0.000000	0.000000	0.000000	0.000000	-0.258165	0.000000	0.347601	0.000000	0.000000	0.000000	0.000000	0.000000	0.000000	-1.621456	0.000000	0.642588	0.000000	0.000000	0.000000
3.037500	0.000000	0.000000	0.000000	0.204929	0.000000	0.324151	0.000000	0.000000	0.000000	0.000000	0.000000	0.000000	-0.250049	0.000000	0.190949	0.000000	0.000000	0.000000	0.000000	0.000000	0.000000	-1.749850	-0.000000	-0.250019	0.000000	0.000000	0.000000
3.038333	0.000000	0.000000	0.000000	0.113231	0.000000	0.215442	0.000000	0.000000	0.000000	0.000000	0.000000	0.000000	-0.252331	0.000000	0.347035	0.000000	0.000000	0.000000	0.000000	0.000000	0.000000	-1.030215	0.000000	0.382693	0.000000	0.000000	0.000000
3.039167	0.000000	0.000000	0.000000	0.338434	0.000000	0.468681	0.000000	0.000000	0.000000	0.000000	0.000000	0.000000	-0.227837	0.000000	0.331663	0.000000	0.000000	0.000000	0.000000	0.000000	0.000000	-0.824176	0.000000	0.076820	0.000000	0.000000	0.000000
